<svg xmlns="http://www.w3.org/2000/svg" xmlns:xlink="http://www.w3.org/1999/xlink" width="1080" zoomAndPan="magnify" viewBox="0 0 810 809.999993" height="1080" preserveAspectRatio="xMidYMid meet" version="1.0"><rect x="-81" width="972" fill="#ffffff" y="-80.999999" height="971.999992" fill-opacity="1"/><rect x="-81" width="972" fill="#ffffff" y="-80.999999" height="971.999992" fill-opacity="1"/><path fill="#010002" d="M 330.042969 98.53125 L 327.566406 216.230469 C 327.566406 220.871094 324.421875 226.875 318.507812 226.875 L 315.335938 226.875 C 309.421875 226.875 306.277344 220.28125 306.277344 215.515625 L 296.816406 97.605469 C 294.394531 97.617188 291.917969 97.617188 289.328125 97.617188 C 284.808594 97.617188 280.578125 97.59375 276.574219 97.59375 L 267.113281 217.132812 C 267.144531 221.453125 263.988281 226.875 258.074219 226.875 L 254.902344 226.875 C 248.988281 226.875 245.84375 220.28125 245.84375 215.515625 L 243.390625 99 C 212 103.941406 212.011719 125.96875 212.011719 222.457031 C 212.011719 255.003906 224.945312 283.347656 248.042969 298.578125 C 251.199219 300.664062 254.535156 302.503906 258.074219 304.078125 C 261.578125 305.628906 265.28125 306.878906 269.144531 307.871094 L 258.53125 713.609375 C 258.53125 722.078125 276.5625 728.996094 285.03125 728.996094 L 298.980469 728.996094 C 307.449219 728.996094 325.480469 722.101562 325.480469 713.632812 L 314.835938 306.375 C 318.730469 305.046875 322.378906 303.339844 325.871094 301.421875 C 330.167969 299.066406 334.140625 296.289062 337.796875 293.128906 C 356.367188 277.09375 366.65625 251.453125 366.65625 222.464844 C 366.65625 122.390625 364.722656 102.425781 330.042969 98.53125 Z M 330.042969 98.53125 " fill-opacity="1" fill-rule="nonzero"/><path fill="#010002" d="M 512.917969 346.203125 L 512.917969 409.023438 C 512.917969 415.675781 514.824219 421.835938 517.972656 427.109375 C 523.28125 422.300781 530.792969 422.234375 534.53125 422.234375 C 537.230469 422.234375 540.175781 422.402344 543.289062 422.570312 C 546.582031 422.75 550.0625 422.9375 553.703125 422.9375 L 557.203125 422.9375 C 560.832031 422.9375 564.324219 422.738281 567.617188 422.570312 C 570.730469 422.390625 573.675781 422.234375 576.375 422.234375 C 580.125 422.234375 587.621094 422.300781 592.933594 427.109375 C 596.082031 421.832031 597.988281 415.683594 597.988281 409.023438 L 597.988281 81.003906 C 525.472656 80.019531 512.917969 327.101562 512.917969 346.203125 Z M 512.917969 346.203125 " fill-opacity="1" fill-rule="nonzero"/><path fill="#010002" d="M 576.375 433.394531 C 573.851562 433.394531 571.117188 433.550781 568.230469 433.707031 C 564.746094 433.90625 561.042969 434.097656 557.214844 434.097656 L 553.699219 434.097656 C 549.863281 434.097656 546.15625 433.898438 542.6875 433.707031 C 539.785156 433.539062 537.050781 433.394531 534.539062 433.394531 C 529.777344 433.394531 526.886719 433.839844 525.199219 435.601562 C 523.785156 437.085938 523.214844 439.488281 523.214844 443.480469 L 523.214844 691.71875 C 523.214844 709.191406 536.894531 723.417969 553.699219 723.417969 L 557.203125 723.417969 C 574.019531 723.417969 587.6875 709.203125 587.6875 691.71875 L 587.6875 443.480469 C 587.6875 439.484375 587.105469 437.085938 585.699219 435.601562 C 584.027344 433.839844 581.148438 433.394531 576.375 433.394531 Z M 576.375 433.394531 " fill-opacity="1" fill-rule="nonzero"/></svg>